<?xml version="1.0" standalone="no"?>
<!DOCTYPE svg PUBLIC "-//W3C//DTD SVG 20010904//EN"
 "http://www.w3.org/TR/2001/REC-SVG-20010904/DTD/svg10.dtd">
<svg version="1.0" xmlns="http://www.w3.org/2000/svg"
 width="300.000000pt" height="300.000000pt" viewBox="0 0 300.000000 300.000000"
 preserveAspectRatio="xMidYMid meet">
<metadata>
Created by potrace 1.14, written by Peter Selinger 2001-2017
</metadata>
<g transform="translate(0.000000,300.000000) scale(0.100000,-0.100000)"
fill="#000000" stroke="none">
<path d="M0 2213 l0 -787 24 49 c13 28 28 68 34 90 15 62 69 203 107 282 20
40 38 86 41 102 8 36 57 97 95 117 17 8 67 18 113 21 75 5 92 3 179 -26 53
-18 99 -36 102 -41 11 -18 -8 -39 -51 -55 -87 -33 -172 -173 -182 -300 -6 -83
14 -108 100 -124 35 -7 73 -14 86 -17 22 -4 22 -4 23 128 2 259 19 340 111
537 60 128 87 208 93 269 2 26 9 65 14 87 6 24 6 42 1 45 -11 7 -8 100 3 100
5 0 17 -5 27 -10 16 -8 18 -7 14 4 -3 8 4 24 15 35 12 12 21 23 21 26 0 3 9
15 20 27 11 12 20 19 20 15 0 -6 51 50 67 72 2 2 6 2 9 -2 4 -3 -3 -21 -15
-40 -11 -19 -21 -42 -21 -51 0 -10 -11 -36 -24 -59 -13 -23 -29 -65 -34 -92
-6 -28 -20 -73 -32 -99 -11 -27 -18 -51 -15 -54 5 -5 35 60 35 77 0 5 3 12 7
14 5 3 8 -27 8 -67 0 -39 5 -89 11 -111 l12 -40 2 40 c1 31 3 35 9 20 8 -19 9
-18 13 5 l5 25 2 -27 c3 -67 -59 -382 -79 -398 -14 -11 -31 -69 -24 -81 4 -7
3 -10 -3 -6 -13 8 -38 -47 -29 -62 4 -6 2 -21 -5 -33 -7 -12 -15 -47 -19 -78
-7 -53 -7 -54 -9 -12 0 23 6 59 14 79 25 60 10 48 -18 -14 -14 -32 -28 -78
-31 -103 l-6 -45 13 39 c11 35 12 23 13 -110 0 -82 6 -166 11 -186 9 -31 8
-38 -3 -38 -8 0 -14 7 -14 15 0 8 -4 15 -8 15 -5 0 -15 18 -22 40 -7 22 -16
40 -20 40 -3 0 -5 25 -4 55 1 30 1 55 -1 55 -2 0 -11 -24 -19 -54 -18 -61 -21
-152 -6 -161 5 -3 10 -15 10 -26 0 -11 19 -40 42 -65 39 -42 43 -44 50 -25 9
27 18 27 11 1 -3 -11 -1 -26 5 -33 6 -7 7 -18 2 -26 -4 -8 -6 -21 -2 -29 3
-10 1 -13 -6 -8 -7 4 -12 2 -12 -3 0 -20 -2 -26 -11 -37 -5 -7 -12 -27 -15
-45 -3 -19 -7 -44 -9 -56 -2 -12 -6 -27 -10 -32 -3 -6 -8 -20 -10 -31 -2 -12
-16 -35 -30 -52 -25 -29 -28 -47 -6 -33 6 3 8 12 5 18 -4 7 -4 9 1 5 4 -4 14
-3 22 3 21 18 15 -1 -12 -37 -25 -33 -34 -60 -15 -49 16 10 11 -1 -7 -16 -15
-12 -16 -12 -8 1 8 13 7 13 -8 1 -18 -15 -23 -26 -7 -16 23 14 8 -13 -25 -45
-19 -19 -35 -38 -35 -44 0 -5 11 1 25 14 14 13 25 20 25 16 0 -5 7 -3 15 4 8
7 15 9 15 4 0 -5 7 0 15 10 18 24 33 13 15 -11 -7 -10 6 1 28 23 38 39 52 45
52 22 0 -5 -4 -7 -10 -3 -14 8 -42 -40 -45 -78 -2 -17 -3 -38 -4 -45 -1 -6 -4
-11 -8 -11 -29 5 -41 -3 -36 -21 6 -24 12 -25 28 -4 10 14 12 12 12 -13 0 -17
9 -40 21 -53 l21 -23 53 28 c29 15 60 33 68 40 8 7 37 25 63 40 47 27 48 28
42 67 -4 27 -3 38 4 33 6 -3 14 1 17 9 11 29 23 6 17 -32 -5 -34 -4 -36 9 -18
9 11 13 29 11 40 -4 16 -2 18 5 7 8 -11 11 -9 15 10 3 18 5 16 6 -11 1 -30 3
-32 12 -17 6 10 9 28 6 38 -4 17 -3 18 9 8 11 -9 14 -9 14 0 0 22 20 0 21 -22
1 -18 2 -19 6 -4 4 14 11 18 29 14 19 -3 30 3 46 27 12 17 27 34 32 38 6 4 7
10 3 14 -3 4 -13 1 -22 -6 -8 -7 -22 -10 -30 -6 -8 3 -15 2 -15 -2 0 -10 -73
-8 -90 3 -9 6 -11 4 -5 -6 8 -12 6 -12 -8 -1 -9 8 -20 11 -26 8 -5 -4 -17 1
-25 10 -11 11 -16 12 -16 3 0 -7 -6 -4 -14 6 -12 17 -12 22 4 43 11 13 17 29
14 36 -3 8 4 16 15 19 14 3 21 -1 25 -17 8 -32 93 -57 125 -37 10 7 5 20 -23
61 -20 29 -36 61 -36 72 0 22 43 68 64 68 8 0 27 5 41 12 19 9 25 19 25 45 0
33 0 33 46 33 40 0 45 -2 34 -15 -7 -8 -19 -15 -26 -15 -8 0 -14 -7 -14 -16 0
-10 6 -14 15 -10 8 3 21 -2 30 -10 13 -14 15 -13 15 8 0 21 2 20 21 -9 23 -37
42 -35 33 3 -6 25 10 35 19 12 3 -7 6 -3 6 9 1 12 12 48 26 80 14 32 19 50 11
41 -7 -10 -16 -15 -19 -11 -4 3 -7 2 -7 -4 0 -6 -10 -13 -22 -16 -13 -3 -41
-12 -63 -21 -22 -8 -61 -15 -87 -16 -87 0 -136 32 -174 117 -13 28 -53 105
-90 170 -85 149 -130 246 -139 300 -7 47 9 113 31 126 8 4 14 13 14 18 0 18
44 48 70 49 14 0 32 5 40 11 11 7 7 9 -19 7 -38 -3 -50 12 -26 32 12 10 18 10
31 0 12 -11 15 -11 12 1 -2 10 8 15 35 17 24 2 37 8 37 18 0 8 7 14 15 14 8 0
15 4 15 10 0 7 -44 64 -70 90 -3 3 -5 12 -5 20 0 8 -21 25 -47 37 l-47 22 29
53 c15 29 35 82 44 118 28 112 71 178 129 201 18 7 40 19 49 27 20 16 203 20
234 4 55 -28 75 -34 104 -30 21 3 34 0 37 -9 3 -7 17 -13 30 -13 45 0 104 -23
130 -50 35 -37 80 -145 87 -205 15 -148 28 -238 41 -313 9 -45 13 -87 10 -92
-3 -5 -7 -33 -10 -63 -2 -30 -13 -69 -25 -89 -11 -19 -31 -72 -44 -117 -13
-44 -31 -93 -41 -107 -9 -14 -14 -28 -11 -31 3 -3 -2 -12 -12 -20 -18 -14 132
62 205 103 49 29 60 30 42 7 -11 -16 -11 -16 1 -5 8 7 15 16 15 21 0 4 17 22
38 41 76 66 120 202 112 340 -3 45 -2 57 4 40 5 -14 10 -56 11 -95 2 -68 3
-69 11 -25 9 51 1 278 -11 327 -5 20 -4 36 4 44 8 9 8 10 -4 4 -13 -8 -13 -7
-1 9 12 14 12 19 2 25 -7 5 -12 11 -12 15 3 19 0 27 -8 21 -5 -3 -13 0 -17 6
-4 8 -3 9 4 5 19 -11 14 11 -15 72 -15 31 -26 63 -25 70 2 7 -3 11 -9 10 -7
-2 -15 5 -17 16 -2 11 0 16 7 12 6 -4 11 -1 11 6 1 7 7 2 15 -12 9 -15 15 -19
15 -10 0 8 8 -1 16 -20 22 -48 36 -84 34 -88 0 -1 8 -14 19 -28 11 -14 18 -34
16 -44 -2 -11 0 -20 6 -20 5 0 9 -6 9 -14 0 -8 15 -36 33 -62 65 -97 75 -141
79 -326 2 -91 0 -164 -3 -162 -4 2 -9 -13 -12 -32 -10 -63 37 -255 84 -344 11
-19 19 -38 19 -42 0 -17 123 -194 142 -204 14 -7 17 -13 8 -16 -7 -2 4 -18 29
-41 23 -20 41 -40 41 -44 0 -5 12 -16 26 -27 22 -16 37 -18 92 -13 71 7 75 -2
9 -19 l-42 -11 38 -17 c21 -9 60 -25 87 -36 l50 -20 0 86 0 86 -25 -6 c-14 -4
-25 -2 -25 2 0 5 -18 22 -40 37 -40 28 -49 46 -13 27 10 -5 37 -13 61 -17 l42
-7 0 941 0 941 -1500 0 -1500 0 0 -787z m626 626 c44 -21 94 -78 94 -109 0 -8
7 -24 15 -34 19 -25 19 -55 0 -62 -8 -4 -15 -16 -15 -29 0 -14 -16 -37 -40
-59 -48 -43 -88 -47 -152 -13 -91 49 -94 52 -97 111 -1 40 2 55 14 59 9 4 15
19 15 37 0 23 6 33 24 40 26 10 51 45 41 59 -6 10 11 19 38 20 9 1 38 -9 63
-20z m1656 -333 c-8 -14 -22 18 -21 49 l0 30 13 -35 c7 -19 10 -39 8 -44z
m-34 -421 c0 -16 -2 -15 -8 5 -11 34 -11 60 0 35 5 -11 8 -29 8 -40z m-208
-200 c0 -14 -9 -44 -20 -66 -20 -38 -20 -39 -2 -28 21 13 52 6 52 -11 0 -5 -7
-10 -16 -10 -8 0 -13 -4 -9 -9 9 -15 -28 -31 -47 -20 -12 7 -15 20 -12 55 2
26 9 53 15 60 7 8 9 17 6 21 -8 7 11 33 24 33 5 0 9 -11 9 -25z m-12 -191 c-7
-15 -14 -21 -16 -15 -2 7 2 18 8 26 18 22 21 18 8 -11z m-1141 -56 c-3 -8 -6
-5 -6 6 -1 11 2 17 5 13 3 -3 4 -12 1 -19z m22 -159 c12 -59 21 -111 21 -115
1 -27 20 27 20 55 0 27 3 31 14 22 10 -9 15 -8 20 4 12 33 26 12 26 -41 0 -30
5 -64 11 -75 8 -15 6 -39 -6 -92 -9 -39 -19 -137 -21 -217 -7 -211 -9 -234
-22 -255 -10 -18 -11 -17 -12 13 0 17 -4 32 -9 32 -5 0 -12 14 -16 31 -6 28
-8 29 -21 12 -11 -13 -10 -8 2 18 14 30 14 44 4 92 -6 32 -16 55 -21 51 -11
-6 -9 56 2 71 21 29 51 246 36 261 -4 4 -7 -1 -8 -12 -1 -43 -40 84 -45 145
-3 36 -7 82 -9 101 -8 68 13 6 34 -101z m-112 -71 c-3 -7 -5 -2 -5 12 0 14 2
19 5 13 2 -7 2 -19 0 -25z m230 -40 c-2 -13 -4 -5 -4 17 -1 22 1 32 4 23 2
-10 2 -28 0 -40z m1768 -228 c17 -7 15 -9 -10 -8 -16 0 -41 4 -55 8 -23 7 -22
8 10 8 19 0 44 -3 55 -8z m-1300 -30 c3 -5 1 -10 -4 -10 -6 0 -11 5 -11 10 0
6 2 10 4 10 3 0 8 -4 11 -10z m-440 -60 c-19 -37 -25 -38 -25 -2 0 18 3 23 9
14 7 -11 9 -11 14 2 4 9 9 16 12 16 3 0 -1 -13 -10 -30z m-160 -60 c-3 -5 -20
-19 -38 -30 -32 -22 -32 -22 3 9 37 32 45 37 35 21z m51 -259 c0 -11 -5 -17
-13 -14 -10 4 -11 9 -2 19 15 18 15 18 15 -5z"/>
<path d="M942 2330 c-24 -104 -26 -151 -3 -57 8 28 18 57 23 64 5 6 8 30 6 53
-3 36 -6 29 -26 -60z"/>
<path d="M961 2304 c0 -11 3 -14 6 -6 3 7 2 16 -1 19 -3 4 -6 -2 -5 -13z"/>
<path d="M952 2260 c0 -14 2 -19 5 -12 2 6 2 18 0 25 -3 6 -5 1 -5 -13z"/>
<path d="M1555 2252 c-78 -14 -121 -33 -139 -62 -10 -17 -16 -34 -13 -36 7 -7
87 17 87 26 0 3 23 14 52 25 43 15 48 20 32 26 -10 5 6 5 36 2 30 -3 70 -12
88 -20 41 -17 42 -9 1 12 -34 18 -113 33 -144 27z"/>
<path d="M2346 2178 c4 -13 13 -39 20 -58 10 -28 13 -30 13 -12 1 25 -24 92
-34 92 -4 0 -3 -10 1 -22z"/>
<path d="M1398 2113 c7 -3 16 -2 19 1 4 3 -2 6 -13 5 -11 0 -14 -3 -6 -6z"/>
<path d="M1558 2113 c7 -3 16 -2 19 1 4 3 -2 6 -13 5 -11 0 -14 -3 -6 -6z"/>
<path d="M1472 2085 c-36 -30 -47 -31 -65 -5 -13 19 -15 20 -21 3 -5 -11 -1
-22 10 -30 24 -17 25 -17 69 12 20 15 40 24 43 20 3 -3 3 -6 1 -8 -64 -48 -63
-47 -40 -47 11 0 21 4 21 8 0 5 11 14 25 20 22 10 25 9 25 -9 0 -19 5 -21 45
-17 25 2 45 0 45 -4 0 -9 78 -3 88 6 4 4 -1 12 -11 17 -9 6 -15 14 -12 19 7
12 -35 40 -60 40 -14 0 -8 -7 20 -20 23 -12 29 -18 15 -14 -14 3 -54 8 -89 11
-41 4 -58 9 -50 14 10 6 8 9 -8 9 -12 0 -35 -11 -51 -25z"/>
<path d="M2386 1988 c5 -29 7 -87 6 -130 -2 -45 1 -79 8 -83 6 -4 10 10 10 37
0 24 2 75 5 113 5 82 -1 115 -22 115 -13 0 -14 -8 -7 -52z"/>
<path d="M727 2003 c-4 -3 -7 -13 -7 -22 1 -13 3 -13 11 2 11 19 8 33 -4 20z"/>
<path d="M711 1863 c-6 -22 -13 -55 -16 -74 -3 -18 4 -3 14 36 11 38 18 71 16
73 -2 2 -8 -14 -14 -35z"/>
<path d="M2242 1722 c-11 -25 -11 -25 4 -10 9 9 15 21 13 27 -2 6 -10 -2 -17
-17z"/>
<path d="M1228 1713 c-16 -2 -28 -9 -28 -14 0 -6 16 -8 38 -5 20 3 29 3 20 0
-10 -3 -18 -9 -18 -13 0 -18 14 -19 42 -5 16 8 39 14 51 14 12 -1 31 -2 42 -1
18 2 18 3 -5 16 -24 14 -83 17 -142 8z"/>
<path d="M820 1699 c0 -3 -11 -33 -24 -67 -14 -34 -21 -62 -18 -62 10 0 55
120 48 127 -3 4 -6 4 -6 2z"/>
<path d="M2231 1681 c-7 -5 -11 -15 -9 -22 3 -10 8 -7 17 9 13 24 12 26 -8 13z"/>
<path d="M2190 1642 c0 -5 -8 -17 -18 -28 -10 -10 -26 -39 -36 -63 -9 -25 -26
-57 -37 -72 -25 -36 -25 -48 1 -18 l20 24 -15 -40 c-14 -35 -14 -37 -1 -20 8
11 21 27 29 35 21 22 76 190 62 190 -3 0 -5 -4 -5 -8z"/>
<path d="M767 1546 c-4 -10 -7 -25 -6 -34 0 -11 4 -9 10 7 5 13 8 29 6 35 -2
5 -6 2 -10 -8z"/>
<path d="M2095 1534 c-9 -15 -12 -23 -6 -20 11 7 35 46 28 46 -3 0 -12 -12
-22 -26z"/>
<path d="M1159 1516 c17 -20 80 -28 215 -26 123 2 208 17 111 20 -183 5 -312
11 -324 15 -11 4 -11 2 -2 -9z"/>
<path d="M1784 1458 l-19 -23 25 20 c14 11 27 21 29 22 2 2 0 3 -6 3 -5 0 -18
-10 -29 -22z"/>
<path d="M1770 1410 c-14 -11 -20 -20 -14 -20 6 0 19 9 29 20 23 25 17 25 -15
0z"/>
<path d="M2120 1411 c-6 -13 -6 -22 -1 -26 9 -5 31 24 31 39 0 14 -20 4 -30
-13z"/>
<path d="M1350 1400 c-14 -4 -41 -9 -60 -10 l-35 -2 35 -8 c40 -10 74 -4 91
16 13 15 7 16 -31 4z"/>
<path d="M2049 1383 c-13 -16 -12 -17 4 -4 16 13 21 21 13 21 -2 0 -10 -8 -17
-17z"/>
<path d="M1829 1353 c-13 -16 -12 -17 4 -4 9 7 17 15 17 17 0 8 -8 3 -21 -13z"/>
<path d="M1676 1308 c-25 -29 -46 -62 -46 -74 0 -12 -7 -38 -16 -59 -8 -20
-13 -40 -10 -43 3 -2 8 1 10 9 32 103 54 147 95 192 13 15 22 27 19 27 -4 0
-27 -24 -52 -52z"/>
<path d="M2135 1339 c-4 -6 -5 -12 -2 -15 2 -3 7 2 10 11 7 17 1 20 -8 4z"/>
<path d="M2066 1311 c-23 -25 -38 -90 -25 -110 8 -14 9 -14 8 -1 -4 26 12 68
27 74 8 3 14 10 14 16 0 6 -4 8 -10 5 -5 -3 -10 -4 -10 -1 0 3 9 10 20 16 18
9 18 8 9 -19 -7 -21 -7 -36 0 -48 9 -16 10 -15 11 8 0 14 5 30 10 35 15 15 1
44 -20 44 -9 0 -25 -9 -34 -19z"/>
<path d="M1750 1290 c-12 -16 -18 -30 -13 -30 4 0 16 14 25 30 22 39 15 39
-12 0z"/>
<path d="M2132 1270 c-14 -45 -16 -116 -4 -124 8 -5 14 37 13 87 0 22 17 12
30 -17 8 -17 8 -15 3 9 -4 17 -6 40 -5 53 0 13 -3 21 -8 17 -5 -3 -11 -1 -13
5 -2 6 -9 -8 -16 -30z"/>
<path d="M605 1270 c-11 -5 -47 -14 -79 -21 -32 -6 -93 -29 -135 -51 -51 -26
-84 -37 -101 -34 -14 3 -85 0 -158 -6 l-132 -12 0 -548 0 -548 25 0 c18 0 26
-7 31 -25 l6 -25 212 0 213 0 12 83 c7 45 19 107 27 138 25 101 43 207 37 227
-3 12 2 31 11 44 22 31 20 47 -4 41 -23 -6 -26 9 -5 27 8 6 17 22 21 33 3 12
15 41 26 65 11 23 24 76 29 116 5 41 16 92 25 112 10 24 12 40 6 42 -7 2 -7
14 -1 35 12 43 11 50 -6 43 -26 -9 -17 23 30 115 25 48 45 94 45 103 0 15 -75
57 -101 55 -8 0 -23 -4 -34 -9z"/>
<path d="M1595 1229 c-15 -28 -25 -55 -23 -61 2 -6 16 17 30 51 32 74 28 80
-7 10z"/>
<path d="M1775 1254 c-9 -15 -12 -23 -6 -20 11 7 35 46 28 46 -3 0 -12 -12
-22 -26z"/>
<path d="M2310 1236 c0 -2 8 -10 18 -17 15 -13 16 -12 3 4 -13 16 -21 21 -21
13z"/>
<path d="M2086 1204 c-4 -9 -4 -19 -1 -22 3 -3 5 0 5 7 0 7 4 10 8 7 5 -3 9 1
9 9 0 20 -13 19 -21 -1z"/>
<path d="M2153 1185 c0 -22 2 -30 4 -17 2 12 2 30 0 40 -3 9 -5 -1 -4 -23z"/>
<path d="M2240 1211 c0 -5 7 -15 17 -22 15 -13 15 -12 4 9 -12 23 -21 28 -21
13z"/>
<path d="M1750 1168 c-11 -18 -20 -40 -20 -48 0 -8 6 -4 13 10 8 14 19 35 26
48 18 34 3 26 -19 -10z"/>
<path d="M2260 1126 c0 -23 16 -27 17 -5 1 10 -2 19 -8 19 -5 0 -9 -6 -9 -14z"/>
<path d="M1996 1101 c-4 -7 -5 -15 -2 -18 9 -9 19 4 14 18 -4 11 -6 11 -12 0z"/>
<path d="M1420 1084 c0 -8 5 -12 10 -9 6 4 8 11 5 16 -9 14 -15 11 -15 -7z"/>
<path d="M2276 1078 c3 -5 10 -6 15 -3 13 9 11 12 -6 12 -8 0 -12 -4 -9 -9z"/>
<path d="M1380 1069 c0 -5 -4 -7 -10 -4 -20 12 -9 -11 20 -45 17 -21 27 -27
23 -16 -5 15 -3 18 10 13 11 -4 14 -2 10 9 -4 12 -8 12 -21 2 -13 -11 -14 -9
-9 12 4 14 4 19 1 13 -9 -21 -23 -15 -17 7 3 11 3 20 -1 20 -3 0 -6 -5 -6 -11z"/>
<path d="M1436 1061 c-3 -5 1 -14 8 -20 12 -10 13 -8 9 8 -6 23 -9 25 -17 12z"/>
<path d="M2262 1051 c2 -9 8 -16 13 -16 6 0 23 -10 39 -22 16 -13 24 -23 18
-23 -6 0 -20 10 -32 22 -11 12 -20 17 -20 12 0 -17 65 -74 89 -79 12 -2 38
-14 57 -25 19 -12 34 -17 34 -12 0 5 -22 21 -50 36 -32 18 -50 34 -50 46 0 10
-14 28 -30 40 -17 12 -28 25 -26 28 2 4 -7 8 -20 8 -18 2 -24 -3 -22 -15z"/>
<path d="M2367 1059 c7 -7 15 -10 18 -7 3 3 -2 9 -12 12 -14 6 -15 5 -6 -5z"/>
<path d="M1300 1055 c0 -6 7 -21 16 -33 12 -18 19 -20 29 -12 18 15 8 41 -12
33 -8 -3 -19 0 -24 8 -5 8 -9 9 -9 4z"/>
<path d="M2353 1037 c18 -28 95 -83 103 -74 3 3 -15 19 -40 36 -33 20 -42 30
-31 33 12 2 6 7 -15 15 -31 12 -32 12 -17 -10z"/>
<path d="M1701 1034 c0 -11 3 -14 6 -6 3 7 2 16 -1 19 -3 4 -6 -2 -5 -13z"/>
<path d="M1284 1033 c3 -6 2 -15 -4 -18 -8 -5 -7 -11 1 -21 6 -7 16 -11 22 -7
5 3 7 2 4 -4 -3 -5 3 -22 14 -39 10 -16 19 -26 19 -22 0 3 3 14 7 24 5 13 3
16 -10 11 -9 -3 -17 -2 -17 2 0 5 4 11 9 13 5 2 -5 19 -21 38 -17 19 -28 30
-24 23z"/>
<path d="M1881 1014 c0 -11 3 -14 6 -6 3 7 2 16 -1 19 -3 4 -6 -2 -5 -13z"/>
<path d="M1346 1002 c-3 -5 1 -15 9 -22 8 -7 15 -18 15 -26 0 -7 4 -16 10 -19
6 -4 7 1 3 12 -15 40 -31 64 -37 55z"/>
<path d="M2096 993 c-6 -14 -5 -15 5 -6 7 7 10 15 7 18 -3 3 -9 -2 -12 -12z"/>
<path d="M2258 987 c8 -9 14 -36 15 -61 2 -45 10 -58 21 -33 3 6 2 -7 -1 -30
-7 -54 23 -182 46 -191 20 -7 31 -22 30 -42 0 -10 -3 -9 -10 5 -8 17 -9 16 -6
-7 2 -15 1 -29 -2 -31 -3 -2 -1 -2 6 -1 6 2 14 -7 16 -19 3 -12 4 -6 4 13 0
19 5 45 11 57 7 12 12 31 12 42 0 22 14 28 25 11 3 -5 2 -10 -3 -10 -6 0 -15
-28 -21 -62 -6 -35 -14 -74 -18 -88 -3 -14 -6 -41 -5 -60 6 -197 13 -347 17
-358 3 -7 0 -10 -5 -7 -6 4 -7 -6 -4 -25 4 -18 2 -30 -4 -30 -6 0 -12 10 -14
22 -3 22 -4 22 -21 -7 -10 -16 -16 -22 -13 -12 9 28 -5 98 -18 94 -6 -2 -12
-13 -14 -25 -4 -26 -22 -30 -22 -4 -1 10 -8 4 -19 -17 -15 -28 -16 -41 -8 -73
l9 -38 328 0 c294 0 332 2 359 18 17 9 31 23 31 30 0 6 4 12 10 12 6 0 9 32 7
80 -1 43 -3 75 -5 70 -2 -6 -12 -10 -21 -10 -10 0 -23 -10 -29 -22 -7 -15 -11
-17 -11 -8 -1 13 -2 13 -11 0 -17 -26 -12 13 5 46 17 33 20 78 5 69 -5 -3 -10
-17 -10 -29 0 -25 -22 -51 -33 -39 -7 6 -11 -15 -10 -45 1 -7 -2 -11 -5 -8 -3
3 -11 1 -19 -5 -10 -9 -13 -8 -13 2 -1 11 -3 11 -13 -1 -7 -9 -19 -15 -27 -15
-8 1 -24 -6 -34 -14 -18 -15 -19 -15 -12 4 6 18 5 17 -17 -3 -21 -20 -25 -21
-30 -8 -4 9 -1 16 5 16 6 0 8 3 5 7 -4 3 -2 12 4 20 7 8 8 13 1 13 -5 0 -15
-7 -22 -15 -25 -30 -29 7 -6 44 13 20 26 50 30 66 6 28 5 28 -19 -10 -13 -22
-28 -48 -31 -57 -3 -9 -12 -19 -20 -22 -12 -5 -12 0 1 30 8 19 10 32 5 29 -24
-15 3 35 38 71 29 31 29 47 -1 33 -12 -5 -33 -28 -45 -50 -13 -23 -26 -39 -28
-36 -3 3 4 20 15 38 23 37 27 54 11 44 -20 -12 -9 12 15 35 96 90 17 241 -173
331 -48 22 -98 46 -112 53 -14 6 -26 20 -28 29 -3 14 6 12 45 -13 26 -17 56
-29 65 -27 9 3 19 -2 22 -10 4 -9 13 -13 22 -9 8 3 12 2 9 -4 -5 -8 8 -14 18
-8 1 1 21 -11 44 -25 24 -15 46 -27 51 -27 4 0 21 -18 38 -40 16 -22 34 -38
39 -36 20 7 6 80 -20 103 -26 22 -34 40 -13 27 7 -4 8 -3 4 5 -4 6 -12 9 -17
6 -5 -4 -12 1 -15 9 -3 9 -18 16 -32 16 l-26 0 34 -30 c33 -29 32 -28 -20 5
-34 22 -67 35 -88 35 -19 0 -31 4 -27 10 3 5 -6 12 -20 16 -14 3 -25 11 -25
16 0 6 -7 7 -16 4 -8 -3 -12 -2 -9 3 10 18 -34 23 -57 7 -12 -9 -27 -16 -33
-16 -5 0 -3 5 5 10 19 12 20 32 0 48 -13 10 -12 11 5 5 11 -3 23 -11 27 -17 5
-8 8 -8 8 0 0 7 -11 19 -24 27 -37 25 -57 48 -50 59 5 7 2 8 -6 3 -10 -6 -12
-3 -8 12 4 13 -2 24 -16 33 -19 12 -20 12 -8 -3z m192 -207 c8 -5 11 -10 5
-10 -5 0 -17 5 -25 10 -8 5 -10 10 -5 10 6 0 17 -5 25 -10z m235 -90 c3 -6 -1
-7 -9 -4 -18 7 -21 14 -7 14 6 0 13 -4 16 -10z m-40 -247 c-21 -78 -26 -115
-15 -108 16 10 11 -5 -10 -32 -14 -18 -20 -21 -20 -10 0 8 6 17 13 20 6 2 9 7
6 11 -4 4 -13 0 -22 -8 -8 -8 -18 -12 -22 -8 -5 4 -6 0 -3 -9 7 -18 -7 -46
-15 -32 -9 14 29 79 43 75 6 -1 9 1 6 6 -3 4 6 39 20 76 13 37 25 77 25 89 1
15 3 17 6 5 2 -9 -3 -42 -12 -75z m47 5 c-6 -6 -7 0 -4 19 5 21 7 23 10 9 2
-10 0 -22 -6 -28z m-32 -302 c0 -2 -8 -10 -17 -17 -16 -13 -17 -12 -4 4 13 16
21 21 21 13z"/>
<path d="M1260 981 c0 -20 51 -101 63 -101 7 0 5 5 -3 10 -8 5 -10 10 -5 10 6
0 4 4 -3 8 -7 5 -15 19 -17 32 -5 27 -35 63 -35 41z"/>
<path d="M1509 975 c-1 -3 -2 -8 -3 -12 -3 -17 -33 -52 -39 -46 -4 3 -16 -2
-28 -13 -12 -10 -24 -19 -27 -19 -6 0 -4 -26 3 -33 5 -6 58 19 90 43 23 18 31
31 28 45 -3 11 -10 20 -15 20 -5 0 -6 5 -3 10 3 6 4 10 1 10 -3 0 -7 -2 -7 -5z"/>
<path d="M2202 960 c0 -14 2 -19 5 -12 2 6 2 18 0 25 -3 6 -5 1 -5 -13z"/>
<path d="M1560 960 c0 -5 5 -10 11 -10 5 0 7 5 4 10 -3 6 -8 10 -11 10 -2 0
-4 -4 -4 -10z"/>
<path d="M2308 955 c18 -34 69 -78 76 -66 4 6 14 11 22 11 9 0 12 -5 8 -12 -5
-7 -3 -8 6 -3 10 6 9 11 -5 22 -22 15 -39 17 -30 4 3 -5 1 -12 -5 -16 -5 -3
-10 -1 -10 4 0 11 -20 33 -55 61 -17 14 -17 14 -7 -5z"/>
<path d="M2505 950 c3 -5 13 -10 21 -10 8 0 14 5 14 10 0 6 -9 10 -21 10 -11
0 -17 -4 -14 -10z"/>
<path d="M1831 934 c0 -11 3 -14 6 -6 3 7 2 16 -1 19 -3 4 -6 -2 -5 -13z"/>
<path d="M2496 911 c21 -16 42 -27 47 -24 4 2 29 -8 55 -23 46 -27 47 -27 27
-3 -11 13 -20 25 -21 27 -1 1 -11 4 -22 7 -11 2 -29 8 -39 13 -10 5 -23 8 -29
5 -6 -2 -17 3 -24 12 -7 8 -17 15 -23 15 -6 0 7 -13 29 -29z"/>
<path d="M2635 920 c3 -5 11 -10 16 -10 6 0 7 5 4 10 -3 6 -11 10 -16 10 -6 0
-7 -4 -4 -10z"/>
<path d="M2001 894 c0 -11 3 -14 6 -6 3 7 2 16 -1 19 -3 4 -6 -2 -5 -13z"/>
<path d="M2865 870 c3 -5 8 -10 11 -10 2 0 4 5 4 10 0 6 -5 10 -11 10 -5 0 -7
-4 -4 -10z"/>
<path d="M2405 850 c3 -5 8 -10 11 -10 2 0 4 5 4 10 0 6 -5 10 -11 10 -5 0 -7
-4 -4 -10z"/>
<path d="M1590 836 c0 -8 5 -18 10 -21 6 -3 10 1 10 9 0 8 -4 18 -10 21 -5 3
-10 -1 -10 -9z"/>
<path d="M2530 819 c0 -5 5 -7 10 -4 6 3 10 8 10 11 0 2 -4 4 -10 4 -5 0 -10
-5 -10 -11z"/>
<path d="M2237 801 c-4 -17 -3 -21 5 -13 5 5 8 16 6 23 -3 8 -7 3 -11 -10z"/>
<path d="M2469 809 c14 -5 31 -15 38 -21 7 -6 13 -6 13 -1 0 11 -44 33 -63 32
-7 0 -1 -5 12 -10z"/>
<path d="M2556 812 c-3 -4 4 -9 15 -9 23 -2 25 3 4 10 -8 4 -16 3 -19 -1z"/>
<path d="M1616 801 c-4 -6 -3 -19 3 -28 9 -17 10 -17 17 0 8 21 -10 45 -20 28z"/>
<path d="M1828 776 c-3 -14 -1 -31 3 -38 6 -8 9 1 9 25 0 42 -6 48 -12 13z"/>
<path d="M1569 777 c11 -14 11 -17 0 -18 -8 -1 -18 -1 -22 0 -4 1 0 -10 9 -24
16 -24 26 -33 22 -17 -1 4 3 17 10 29 11 19 9 24 -10 34 -21 11 -22 11 -9 -4z"/>
<path d="M2760 755 c7 -8 17 -15 22 -15 5 0 3 7 -6 15 -8 8 -18 15 -22 15 -3
0 -1 -7 6 -15z"/>
<path d="M2690 756 c0 -3 15 -15 33 -27 l32 -23 -24 27 c-22 24 -41 35 -41 23z"/>
<path d="M2012 726 c-2 -24 33 -65 45 -53 3 4 1 7 -5 7 -7 0 -12 11 -12 24 0
33 -25 53 -28 22z"/>
<path d="M1591 714 c0 -11 3 -14 6 -6 3 7 2 16 -1 19 -3 4 -6 -2 -5 -13z"/>
<path d="M2066 705 c4 -8 8 -15 10 -15 2 0 4 7 4 15 0 8 -4 15 -10 15 -5 0 -7
-7 -4 -15z"/>
<path d="M745 678 c-17 -17 -31 -40 -31 -51 -1 -15 6 -10 32 19 19 21 34 44
34 51 0 18 -1 17 -35 -19z"/>
<path d="M2111 693 c-6 -12 -5 -22 4 -30 10 -10 14 -9 19 3 4 10 2 13 -6 8 -7
-5 -9 0 -6 14 7 26 2 28 -11 5z"/>
<path d="M2726 696 c7 -18 34 -22 34 -4 0 6 -3 8 -7 5 -3 -4 -12 -2 -20 5 -11
8 -12 7 -7 -6z"/>
<path d="M798 679 c-22 -12 -24 -31 -3 -23 11 5 14 2 9 -12 -4 -11 -3 -16 2
-11 6 6 15 61 9 57 0 0 -8 -5 -17 -11z"/>
<path d="M1842 665 c0 -16 2 -22 5 -12 2 9 2 23 0 30 -3 6 -5 -1 -5 -18z"/>
<path d="M1910 656 c0 -8 4 -17 9 -20 5 -4 7 3 4 14 -6 23 -13 26 -13 6z"/>
<path d="M2850 661 c0 -5 5 -13 10 -16 6 -3 10 -2 10 4 0 5 -4 13 -10 16 -5 3
-10 2 -10 -4z"/>
<path d="M1891 643 c0 -12 4 -25 9 -28 6 -3 10 -19 10 -35 0 -38 9 -60 25 -60
11 0 11 9 -2 48 -9 26 -19 49 -23 52 -4 3 -10 14 -13 25 -4 19 -5 18 -6 -2z"/>
<path d="M2734 623 c2 -18 -1 -33 -6 -33 -5 0 -6 -4 -3 -10 13 -21 27 -9 22
17 -5 26 -4 26 9 8 8 -10 14 -14 14 -8 0 6 -9 21 -20 34 l-19 24 3 -32z"/>
<path d="M2645 620 c10 -11 20 -20 23 -20 3 0 -3 9 -13 20 -10 11 -20 20 -23
20 -3 0 3 -9 13 -20z"/>
<path d="M1872 610 c0 -14 2 -19 5 -12 2 6 2 18 0 25 -3 6 -5 1 -5 -13z"/>
<path d="M2866 622 c-2 -4 -1 -14 5 -22 7 -12 9 -10 9 8 0 23 -5 28 -14 14z"/>
<path d="M733 608 c-5 -7 -10 -26 -11 -43 -1 -25 0 -27 9 -12 11 19 22 67 15
67 -2 0 -8 -6 -13 -12z"/>
<path d="M1970 565 c0 -39 5 -60 18 -73 9 -9 18 -29 19 -42 2 -18 0 -21 -7
-10 -5 8 -6 18 -3 24 3 5 1 6 -5 3 -14 -10 -4 -44 16 -52 35 -14 60 -15 65 -2
6 17 -33 108 -43 102 -5 -3 -6 5 -2 17 3 14 2 19 -6 14 -7 -4 -12 -2 -12 4 0
6 -5 8 -12 4 -7 -4 -8 -3 -4 5 10 15 -1 61 -14 61 -6 0 -10 -25 -10 -55z"/>
<path d="M2050 611 c0 -6 4 -13 10 -16 6 -3 7 1 4 9 -7 18 -14 21 -14 7z"/>
<path d="M1710 606 c0 -3 5 -17 10 -33 l11 -28 -25 30 c-20 24 -25 26 -26 12
0 -10 4 -16 9 -13 14 9 21 -35 9 -57 -9 -17 -8 -19 6 -14 14 6 15 4 4 -16 -10
-19 -13 -20 -16 -4 -2 9 -8 17 -14 17 -7 0 -6 5 1 14 10 12 9 14 -6 12 -13 -2
-19 -13 -21 -41 -3 -28 -6 -35 -13 -24 -7 11 -9 9 -9 -9 0 -12 7 -25 15 -28
12 -5 13 -10 4 -20 -6 -8 -16 -11 -22 -7 -6 3 -7 1 -3 -5 4 -7 1 -12 -8 -12
-16 0 -22 25 -8 33 4 2 2 3 -4 1 -6 -1 -16 2 -21 7 -19 19 -22 -19 -4 -53 12
-26 14 -35 5 -35 -7 0 -15 6 -18 13 -3 7 -14 10 -25 7 -15 -4 -21 -1 -21 11 0
10 -5 14 -11 11 -6 -4 -8 -13 -5 -20 2 -7 -2 -16 -10 -19 -9 -3 -12 -10 -9
-16 3 -5 -3 -10 -15 -10 -12 0 -19 4 -15 9 3 5 1 12 -5 16 -5 3 -10 -1 -10 -9
0 -9 -4 -16 -10 -16 -5 0 -10 -9 -10 -19 0 -22 -23 -34 -38 -19 -11 11 -42
-11 -42 -30 0 -5 -12 -8 -27 -8 -16 1 -37 -4 -47 -11 -13 -8 -24 -9 -31 -3 -9
7 -16 5 -25 -5 -16 -20 -39 -19 -64 2 -12 10 -18 14 -14 9 4 -5 3 -15 -4 -23
-8 -11 -7 -12 5 -8 8 4 18 2 22 -4 3 -7 0 -8 -9 -5 -9 3 -16 1 -16 -5 0 -6 5
-12 10 -12 6 -1 16 -2 23 -3 6 -1 11 -9 11 -19 -1 -9 2 -14 7 -11 5 3 9 0 9
-5 0 -6 6 -11 14 -11 10 0 13 8 11 21 -3 12 -2 19 2 15 3 -3 12 -1 18 4 10 8
15 3 23 -18 l10 -29 -56 1 c-54 1 -57 3 -77 36 -32 57 -54 84 -61 77 -4 -3 5
-22 20 -41 14 -19 26 -41 26 -48 0 -8 6 -20 12 -26 10 -10 6 -10 -20 -1 -17 6
-32 16 -32 22 0 19 -40 80 -48 73 -3 -4 -2 -10 3 -14 6 -4 18 -24 27 -44 15
-32 15 -38 3 -38 -8 0 -24 10 -36 23 l-22 22 6 -23 c8 -32 -23 -26 -40 8 -8
15 -13 19 -13 10 0 -9 6 -22 13 -29 10 -10 8 -11 -8 -5 -11 4 -27 12 -35 18
-8 6 -12 7 -9 3 4 -5 -4 -20 -18 -35 -13 -14 -22 -34 -20 -44 3 -9 0 -19 -7
-21 -6 -2 4 -4 22 -5 34 -1 59 26 48 54 -3 8 -1 14 3 14 12 0 23 -29 15 -41
-9 -15 20 -10 46 8 18 13 46 17 111 18 51 0 85 -4 82 -9 -4 -5 0 -6 8 0 15 9
119 13 119 4 0 -8 -116 -40 -144 -40 -14 0 -27 -4 -31 -9 -3 -6 -15 -8 -27 -6
-11 3 -26 1 -32 -3 -6 -3 -20 -8 -30 -9 -51 -8 -19 -13 83 -13 63 0 121 5 133
11 15 8 19 8 14 0 -5 -8 34 -11 134 -11 129 0 171 7 190 29 3 3 21 17 40 31
45 31 37 25 160 123 119 96 121 102 66 170 -18 23 -53 74 -76 112 -51 85 -47
80 -63 69 -7 -5 -4 -1 6 9 12 10 14 17 6 17 -7 0 -10 3 -6 6 3 3 -3 14 -14 25
-18 18 -29 24 -29 15z m15 -174 c-13 -14 -16 -14 -13 -2 4 21 22 40 27 28 2
-5 -4 -17 -14 -26z m45 -12 c0 -5 -5 -10 -11 -10 -5 0 -7 5 -4 10 3 6 8 10 11
10 2 0 4 -4 4 -10z m-42 -38 c-7 -8 -14 -29 -14 -46 -3 -53 -4 -56 -19 -56 -8
0 -15 -5 -15 -11 0 -5 5 -7 12 -3 7 5 8 3 3 -6 -6 -10 -11 -9 -21 4 -11 16
-13 16 -20 -6 -4 -13 -7 -26 -6 -30 3 -12 -16 -10 -23 2 -3 6 -1 10 6 10 7 0
10 3 7 6 -7 6 -44 -14 -69 -38 -9 -9 -15 -18 -13 -21 3 -2 -2 -7 -10 -10 -8
-3 -20 1 -27 9 -9 11 -15 12 -26 3 -11 -10 -11 -14 -1 -20 8 -5 3 -10 -15 -14
-17 -5 -33 -2 -42 5 -12 10 -16 9 -21 -4 -3 -9 -10 -13 -15 -10 -5 3 -9 0 -9
-5 0 -8 -6 -7 -19 1 -18 11 -18 13 -3 24 9 7 20 10 24 8 4 -2 9 0 13 6 4 6 11
8 16 5 5 -4 9 -2 9 3 0 15 51 33 74 26 18 -6 19 -5 7 9 -19 24 -7 46 23 43 13
-2 30 1 38 6 10 7 9 8 -4 4 -25 -8 -30 8 -9 26 13 11 22 13 29 6 8 -8 13 -3
18 16 3 14 10 26 15 26 5 0 6 -8 2 -17 -5 -15 -3 -15 14 2 15 15 16 21 6 23
-18 5 -16 17 4 33 9 8 14 10 11 4 -3 -5 1 -16 9 -24 14 -12 15 -12 11 0 -6 16
30 39 49 32 11 -4 11 -8 1 -21z m26 -18 c5 -13 4 -14 -7 -6 -8 7 -18 8 -22 4
-5 -4 -5 -1 -1 6 10 17 23 15 30 -4z m-194 -28 c0 -3 -4 -8 -10 -11 -5 -3 -10
-1 -10 4 0 6 5 11 10 11 6 0 10 -2 10 -4z m60 -116 c0 -5 -5 -10 -11 -10 -5 0
-7 5 -4 10 3 6 8 10 11 10 2 0 4 -4 4 -10z m-285 -67 c16 -15 16 -17 0 -25 -9
-6 -23 -7 -32 -4 -14 6 -14 8 3 22 17 14 17 15 1 10 -11 -3 -16 -2 -12 4 9 14
21 12 40 -7z"/>
<path d="M1510 241 c0 -5 8 -11 18 -13 10 -3 19 0 19 6 0 7 -9 13 -19 13 -10
1 -18 -2 -18 -6z"/>
<path d="M1175 555 c-3 -8 -7 -22 -10 -30 -2 -8 -1 -16 3 -19 4 -2 12 11 18
30 6 19 7 34 2 34 -5 0 -11 -7 -13 -15z"/>
<path d="M2080 561 c0 -5 6 -14 13 -20 10 -8 14 -7 14 4 0 8 -6 16 -14 19 -7
3 -13 2 -13 -3z"/>
<path d="M2751 544 c0 -11 3 -14 6 -6 3 7 2 16 -1 19 -3 4 -6 -2 -5 -13z"/>
<path d="M737 535 c-7 -15 46 -75 66 -75 8 0 9 3 2 8 -19 13 -55 69 -48 76 3
3 2 6 -4 6 -6 0 -13 -7 -16 -15z"/>
<path d="M1107 543 c-11 -10 -8 -45 2 -38 6 3 9 14 8 25 -1 23 -1 22 -10 13z"/>
<path d="M1216 491 c-4 -6 -2 -11 5 -11 10 0 10 -3 1 -12 -15 -15 -15 -28 0
-28 6 0 8 3 5 7 -4 3 -2 12 5 20 8 10 8 17 1 24 -8 8 -13 7 -17 0z"/>
<path d="M1923 482 c10 -10 17 -24 17 -30 0 -7 4 -12 8 -12 12 0 11 32 -1 48
-5 6 -16 12 -25 12 -13 0 -13 -2 1 -18z"/>
<path d="M1100 446 c0 -29 -4 -36 -20 -36 -18 0 -25 16 -21 43 0 4 -7 7 -16 7
-13 0 -14 -3 -6 -11 17 -17 5 -38 -18 -32 -11 3 -19 14 -19 27 0 15 -7 22 -20
23 -11 1 -20 -4 -20 -12 0 -8 -6 -17 -12 -21 -7 -4 -10 -4 -6 1 5 5 -2 15 -13
23 -18 12 -23 13 -30 1 -7 -12 -9 -11 -9 1 0 12 -2 13 -9 1 -5 -8 -16 -11 -30
-6 -34 11 -24 -11 12 -25 17 -6 39 -15 47 -20 158 -86 176 -94 232 -94 32 -1
58 -4 58 -8 0 -17 18 -7 23 13 4 15 2 19 -8 15 -9 -3 -12 0 -9 8 7 18 -46 41
-60 25 -8 -9 -8 -10 0 -6 6 4 16 -5 23 -20 l12 -26 -26 17 c-17 11 -25 13 -25
5 0 -7 -2 -10 -5 -7 -3 3 3 32 13 66 21 65 19 75 -15 80 -20 3 -23 -1 -23 -32z"/>
<path d="M1300 471 c0 -5 5 -13 10 -16 6 -3 10 -2 10 4 0 5 -4 13 -10 16 -5 3
-10 2 -10 -4z"/>
<path d="M2300 450 c0 -5 5 -10 11 -10 5 0 7 5 4 10 -3 6 -8 10 -11 10 -2 0
-4 -4 -4 -10z"/>
<path d="M1240 442 c0 -11 34 -42 45 -42 5 0 1 6 -10 13 -10 8 -15 19 -11 25
4 7 1 12 -8 12 -9 0 -16 -4 -16 -8z"/>
<path d="M1905 423 c2 -29 35 -84 45 -78 18 11 10 41 -18 68 -23 22 -28 24
-27 10z"/>
<path d="M690 402 c9 -24 9 -25 -4 -9 -13 17 -14 16 -19 -3 -3 -11 -2 -18 3
-15 12 7 28 -16 34 -50 5 -21 4 -24 -2 -11 -8 19 -9 19 -14 -2 -4 -12 -2 -22
3 -22 5 0 9 -6 9 -12 0 -7 11 -26 24 -43 21 -27 25 -28 42 -15 11 9 15 10 10
3 -5 -9 -1 -13 13 -13 23 0 28 6 35 43 4 21 -6 39 -46 87 -28 33 -53 60 -55
60 -2 0 -2 -10 0 -22 2 -13 -1 -9 -6 9 -6 18 -16 34 -23 37 -10 4 -11 -1 -4
-22z"/>
<path d="M1197 423 c-23 -23 17 -74 45 -57 7 4 8 3 4 -4 -4 -7 -3 -12 3 -12
18 0 20 15 3 36 -25 29 -48 45 -55 37z"/>
<path d="M2722 395 c0 -16 2 -22 5 -12 2 9 2 23 0 30 -3 6 -5 -1 -5 -18z"/>
<path d="M1991 371 c15 -22 29 -28 29 -10 0 5 5 7 10 4 6 -3 10 -1 10 4 0 6
-6 11 -14 11 -8 0 -22 3 -31 6 -15 6 -15 4 -4 -15z"/>
<path d="M2310 360 c0 -5 5 -10 11 -10 5 0 7 5 4 10 -3 6 -8 10 -11 10 -2 0
-4 -4 -4 -10z"/>
<path d="M666 347 c3 -10 9 -15 12 -12 3 3 0 11 -7 18 -10 9 -11 8 -5 -6z"/>
<path d="M1980 340 c0 -19 3 -21 12 -12 9 9 9 15 0 24 -9 9 -12 7 -12 -12z"/>
<path d="M2280 350 c0 -5 5 -10 11 -10 5 0 7 5 4 10 -3 6 -8 10 -11 10 -2 0
-4 -4 -4 -10z"/>
<path d="M2280 321 c0 -5 8 -15 18 -22 15 -12 16 -12 5 2 -7 9 -10 19 -6 22 3
4 1 7 -5 7 -7 0 -12 -4 -12 -9z"/>
<path d="M866 277 c3 -10 9 -15 12 -12 3 3 0 11 -7 18 -10 9 -11 8 -5 -6z"/>
<path d="M916 245 c4 -8 11 -15 16 -15 6 0 5 6 -2 15 -7 8 -14 15 -16 15 -2 0
-1 -7 2 -15z"/>
<path d="M2235 191 c6 -75 11 -84 25 -45 13 32 8 60 -15 89 -14 18 -15 15 -10
-44z"/>
<path d="M896 227 c3 -10 9 -15 12 -12 3 3 0 11 -7 18 -10 9 -11 8 -5 -6z"/>
<path d="M970 225 c0 -2 9 -19 20 -37 23 -39 27 -30 5 12 -14 27 -25 38 -25
25z"/>
<path d="M870 115 c0 -8 5 -15 10 -15 6 0 10 7 10 15 0 8 -4 15 -10 15 -5 0
-10 -7 -10 -15z"/>
</g>
</svg>
